<svg id="Layer_1" data-name="Layer 1" xmlns="http://www.w3.org/2000/svg" viewBox="0 0 125.91 115.38"><defs><style>.cls-1,.cls-2,.cls-3,.cls-4,.cls-5,.cls-6,.cls-7{fill:none;stroke:#000;stroke-miterlimit:10;}.cls-2{stroke-width:2px;}.cls-3{stroke-width:0.5px;}.cls-4{stroke-dasharray:1.01 1.01;}.cls-5{stroke-dasharray:1;}.cls-6{stroke-width:0.75px;}.cls-7{stroke-dasharray:1.01 1.01;}</style></defs><title>design</title><path class="cls-1" d="M170.5,130H113.88a1.38,1.38,0,0,0-1.38,1.38v46.5a1.38,1.38,0,0,0,1.38,1.37H108V126.81a1.31,1.31,0,0,1,1.31-1.31H170.5" transform="translate(-87.4 -92.17)"/><path class="cls-1" d="M170.5,130" transform="translate(-87.4 -92.17)"/><path class="cls-1" d="M171.75,125.5" transform="translate(-87.4 -92.17)"/><path class="cls-1" d="M179.75,125.5" transform="translate(-87.4 -92.17)"/><path class="cls-1" d="M179.75,130" transform="translate(-87.4 -92.17)"/><path class="cls-1" d="M171.23,179.25H113.88a1.38,1.38,0,0,1-1.38-1.37v-46.5a1.38,1.38,0,0,1,1.38-1.38H170.5" transform="translate(-87.4 -92.17)"/><path class="cls-1" d="M171.23,179.25" transform="translate(-87.4 -92.17)"/><path class="cls-1" d="M170.5,167.72" transform="translate(-87.4 -92.17)"/><path class="cls-1" d="M170.5,167.72" transform="translate(-87.4 -92.17)"/><path class="cls-1" d="M170.5,129.88" transform="translate(-87.4 -92.17)"/><path class="cls-1" d="M179.75,130" transform="translate(-87.4 -92.17)"/><path class="cls-1" d="M179.75,167.75" transform="translate(-87.4 -92.17)"/><path class="cls-1" d="M179.75,130h4.87a1.38,1.38,0,0,1,1.38,1.38v46.5a1.38,1.38,0,0,1-1.38,1.37h-5.47" transform="translate(-87.4 -92.17)"/><path class="cls-1" d="M171.83,190.5H112.25A11.25,11.25,0,0,1,101,179.25h70.23Z" transform="translate(-87.4 -92.17)"/><path class="cls-1" d="M197,179.25a11.27,11.27,0,0,1-11.25,11.25h-7.08l.48-11.25Z" transform="translate(-87.4 -92.17)"/><path class="cls-1" d="M179.64,117.25s.27,37.88,0,50.5c-.06,2.88-.49,11.5-.49,11.5l-.48,11.25-.59,14a2.68,2.68,0,0,1-2.68,2.57,2.62,2.62,0,0,1-1.83-.73,2.65,2.65,0,0,1-.84-1.78l-.9-14-.71-11.25s-.64-8.55-.73-11.4c-.4-12.64,0-50.6,0-50.6Z" transform="translate(-87.4 -92.17)"/><path class="cls-1" d="M179.75,116.82c-.09.23-.4.3-.61.43h-8.23a4.22,4.22,0,0,1-.41-.43c-1.87-2.18-2.62-6.79-2.79-10.65,0-.54,0-1.06,0-1.56,0-6.2,1.76-12,2.5-11.94.27,0-.13,1.36.6,2.68,2.12,3.88,5.74,5.27,8.06,8.07a9,9,0,0,1,1.56,2.75C181.62,109.64,180.94,113.78,179.75,116.82Z" transform="translate(-87.4 -92.17)"/><path class="cls-1" d="M179.75,125.5h9.19a1.31,1.31,0,0,1,1.31,1.31v52.44h-5.63a1.38,1.38,0,0,0,1.38-1.37v-46.5a1.38,1.38,0,0,0-1.38-1.38h-4.87" transform="translate(-87.4 -92.17)"/><line class="cls-1" x1="83.1" y1="54.33" x2="92.35" y2="54.33"/><rect class="cls-1" x="109.29" y="43.9" width="16.13" height="25.17" rx="7.73" ry="7.73"/><path class="cls-1" d="M116,43.9h2.34a1.4,1.4,0,0,1,1.4,1.4v3.62a2.57,2.57,0,0,1-2.57,2.57h0a2.57,2.57,0,0,1-2.57-2.57V45.3a1.4,1.4,0,0,1,1.4-1.4Z"/><line class="cls-2" x1="117.17" y1="45.25" x2="117.17" y2="48.5"/><line class="cls-3" x1="37.42" y1="85.33" x2="40.59" y2="85.33"/><line class="cls-3" x1="37.42" y1="82.93" x2="40.59" y2="82.93"/><line class="cls-3" x1="37.42" y1="80.53" x2="40.59" y2="80.53"/><line class="cls-3" x1="37.42" y1="78.13" x2="40.59" y2="78.13"/><line class="cls-3" x1="37.42" y1="75.73" x2="40.59" y2="75.73"/><line class="cls-3" x1="37.42" y1="73.33" x2="40.59" y2="73.33"/><line class="cls-3" x1="37.42" y1="70.93" x2="40.59" y2="70.93"/><line class="cls-3" x1="37.42" y1="68.54" x2="40.59" y2="68.54"/><line class="cls-3" x1="37.42" y1="66.14" x2="40.59" y2="66.14"/><line class="cls-3" x1="37.42" y1="63.74" x2="40.59" y2="63.74"/><line class="cls-3" x1="37.42" y1="61.34" x2="40.59" y2="61.34"/><line class="cls-3" x1="37.42" y1="58.94" x2="40.59" y2="58.94"/><line class="cls-3" x1="37.42" y1="56.54" x2="40.59" y2="56.54"/><line class="cls-3" x1="37.42" y1="54.14" x2="40.59" y2="54.14"/><line class="cls-3" x1="37.42" y1="51.74" x2="40.59" y2="51.74"/><line class="cls-3" x1="37.42" y1="49.34" x2="40.59" y2="49.34"/><line class="cls-1" x1="117.04" y1="42.56" x2="117.04" y2="42.06"/><line class="cls-4" x1="117.04" y1="41.05" x2="117.04" y2="15.29"/><line class="cls-1" x1="117.04" y1="14.79" x2="117.04" y2="14.29"/><line class="cls-5" x1="117.03" y1="14.29" x2="92.99" y2="14.29"/><line class="cls-5" x1="80.31" y1="14" x2="61.7" y2="14"/><line class="cls-5" x1="61.7" y1="14" x2="61.61" y2="41.69"/><path class="cls-1" d="M163,137.57v12.55a2.06,2.06,0,0,1-2.06,2.06H137.06a2.06,2.06,0,0,1-2.06-2.06V137.57a2.06,2.06,0,0,1,2.06-2.06h9.82a1.9,1.9,0,0,0-.07.54,2.19,2.19,0,0,0,4.38,0,1.9,1.9,0,0,0-.07-.54h9.82A2.06,2.06,0,0,1,163,137.57Z" transform="translate(-87.4 -92.17)"/><line class="cls-1" x1="62.44" y1="49.34" x2="72.27" y2="49.34"/><line class="cls-1" x1="62.44" y1="53.34" x2="72.27" y2="53.34"/><path class="cls-1" d="M141.62,146.05a2.05,2.05,0,0,0,.23.95h-.18a3.17,3.17,0,1,1,1.87-5.72,24.68,24.68,0,0,0-1.87,4.31A2.3,2.3,0,0,0,141.62,146.05Z" transform="translate(-87.4 -92.17)"/><path class="cls-1" d="M144.75,148.68a3.34,3.34,0,0,1-2.9-1.68,2.05,2.05,0,0,1-.23-.95,2.3,2.3,0,0,1,0-.45,24.68,24.68,0,0,1,1.87-4.31c.69-1.35,1.3-2.44,1.3-2.44s2.61,4.94,3,6.75C148.19,147.26,146.46,148.68,144.75,148.68Z" transform="translate(-87.4 -92.17)"/><path class="cls-1" d="M128,137.82v41.43h-8V159.74a2.2,2.2,0,0,0,2.09-2.19A1.91,1.91,0,0,0,122,157a2.16,2.16,0,0,0-2-1.65V137.82a2.31,2.31,0,0,1,2.31-2.31h3.39A2.3,2.3,0,0,1,128,137.82Z" transform="translate(-87.4 -92.17)"/><path class="cls-1" d="M151.19,136.05a2.19,2.19,0,0,1-4.38,0,1.9,1.9,0,0,1,.07-.54,2.18,2.18,0,0,1,4.24,0A1.9,1.9,0,0,1,151.19,136.05Z" transform="translate(-87.4 -92.17)"/><line class="cls-1" x1="74.27" y1="68.83" x2="56.89" y2="68.95"/><line class="cls-1" x1="51.85" y1="68.98" x2="49.01" y2="69"/><rect class="cls-1" x="51.85" y="67.72" width="5.04" height="2.26"/><line class="cls-1" x1="74.11" y1="73.44" x2="68.89" y2="73.48"/><line class="cls-1" x1="63.85" y1="73.51" x2="48.86" y2="73.61"/><rect class="cls-1" x="63.85" y="72.12" width="5.04" height="2.59"/><line class="cls-1" x1="74.27" y1="77.83" x2="58.89" y2="77.93"/><line class="cls-1" x1="53.85" y1="77.97" x2="49.01" y2="78"/><rect class="cls-1" x="53.85" y="76.72" width="5.04" height="2.26"/><circle class="cls-3" cx="36.7" cy="46.56" r="0.75"/><circle class="cls-6" cx="10.24" cy="21.03" r="9.86"/><circle class="cls-6" cx="10.24" cy="21.03" r="3.97"/><line class="cls-6" x1="13.79" y1="19.26" x2="19.23" y2="17.35"/><line class="cls-6" x1="12.59" y1="17.83" x2="15" y2="12.38"/><circle class="cls-3" cx="15.81" cy="15.97" r="0.5"/><circle class="cls-3" cx="10.24" cy="13.47" r="0.5"/><circle class="cls-3" cx="4.56" cy="15.97" r="0.5"/><line class="cls-1" x1="9.81" y1="65.12" x2="9.81" y2="64.62"/><line class="cls-7" x1="9.82" y1="63.62" x2="10.23" y2="31.89"/><line class="cls-1" x1="10.23" y1="31.39" x2="10.24" y2="30.89"/><line class="cls-5" x1="9.81" y1="65.12" x2="30.29" y2="65.28"/><path class="cls-1" d="M122.07,157.55a2.2,2.2,0,0,1-2.09,2.19,2.45,2.45,0,0,1-1-.19,2.18,2.18,0,0,1-1.25-2.1,1.31,1.31,0,0,1,.07-.44,2.18,2.18,0,0,1,2.12-1.66h.1a2.16,2.16,0,0,1,2,1.65A1.91,1.91,0,0,1,122.07,157.55Z" transform="translate(-87.4 -92.17)"/></svg>